<?xml version="1.0" encoding="UTF-8"?>
<svg width="44px" height="40px" viewBox="0 0 44 40" version="1.1" xmlns="http://www.w3.org/2000/svg" xmlns:xlink="http://www.w3.org/1999/xlink">
    <!-- Generator: Sketch 55.2 (78181) - https://sketchapp.com -->
    <title>A Brand / Logos / Studio / AlanStudio-app</title>
    <desc>Created with Sketch.</desc>
    <defs>
        <linearGradient x1="63.9066032%" y1="30.1204183%" x2="34.7430855%" y2="69.8795817%" id="linearGradient-1">
            <stop stop-color="#47B0FF" offset="0%"></stop>
            <stop stop-color="#009DFF" offset="100%"></stop>
        </linearGradient>
        <linearGradient x1="30.5461988%" y1="69.695643%" x2="57.5382%" y2="30.304357%" id="linearGradient-2">
            <stop stop-color="#32BEFF" offset="0%"></stop>
            <stop stop-color="#5ECCFF" offset="100%"></stop>
        </linearGradient>
        <linearGradient x1="25.0938778%" y1="83.4411528%" x2="63.629194%" y2="16.5588472%" id="linearGradient-3">
            <stop stop-color="#1970E3" offset="0%"></stop>
            <stop stop-color="#115FC6" offset="100%"></stop>
        </linearGradient>
        <linearGradient x1="28.5756119%" y1="0%" x2="79.9231513%" y2="100%" id="linearGradient-4">
            <stop stop-color="#62BBFF" offset="0%"></stop>
            <stop stop-color="#009DFF" offset="100%"></stop>
        </linearGradient>
    </defs>
    <g id="A-Brand-/-Logos-/-Studio-/-AlanStudio-app" stroke="none" stroke-width="1" fill="none" fill-rule="evenodd">
        <g id="logo" transform="translate(1.000000, 6.000000)">
            <path d="M15.2375631,0.00517259439 C15.1862714,0.00173854688 15.134645,-6.03961325e-14 15.0827552,-6.03961325e-14 L14.1907357,-6.03961325e-14 L26.437695,-6.03961325e-14 L27.6313708,-6.03961325e-14 L26.7393513,-6.03961325e-14 C26.6874615,-6.03961325e-14 26.6358352,0.00173854688 26.5845435,0.00517259439 C27.2983586,0.0555616161 27.9392199,0.470833179 28.2696656,1.1074397 L41.8858869,27.3392151 C41.9191803,27.4033552 41.936548,27.4744368 41.936548,27.5465587 C41.936548,27.7969874 41.7315993,28 41.4787823,28 L32.131071,28 C31.4449446,28 30.8163954,27.6200374 30.5026527,27.0156092 L20.9110533,8.53730473 L15.9866092,18.0242915 L19.8225382,18.0242915 C20.5101283,18.0242915 21.1397607,18.4058606 21.4528131,19.0122688 L25.4113211,26.6802235 C25.4773069,26.8080434 25.511715,26.9495549 25.511715,27.0931174 C25.511715,27.5939748 25.1018177,28 24.5961837,28 L0.718374522,28 C0.339149026,28 0.0317260204,27.6954811 0.0317260204,27.3198381 C0.0317260204,27.2116552 0.0577774897,27.1050329 0.107717658,27.0088227 L13.552441,1.1074397 C13.8828866,0.470833179 14.523748,0.0555616161 15.2375631,0.00517259439 Z" id="bg" fill="#009DFF"></path>
            <path d="M15.9866092,18.0242915 L19.8225382,18.0242915 C20.5101283,18.0242915 21.1397607,18.4058606 21.4528131,19.0122688 L25.4113211,26.6802235 C25.4773069,26.8080434 25.511715,26.9495549 25.511715,27.0931174 C25.511715,27.5939748 25.1018177,28 24.5961837,28 L9.69103553,28 C10.3771619,28 11.0057111,27.6200374 11.3194538,27.0156092 L15.9866092,18.0242915 Z" id="shape" fill="url(#linearGradient-1)"></path>
            <path d="M15.9866092,18.0242915 L11.3194538,27.0156092 C11.0057111,27.6200374 10.3771619,28 9.69103553,28 L0.779020294,28 C0.670321564,28 0.563175781,27.9744377 0.466396568,27.9254159 C0.128755593,27.7543896 -0.0049900871,27.344619 0.167667229,27.0101676 L4.2327515,19.1357659 C4.58493545,18.4535567 5.2932719,18.0242915 6.0668107,18.0242915 L15.9866092,18.0242915 L15.9866092,18.0242915 Z" id="shape" fill="url(#linearGradient-2)"></path>
            <path d="M15.9866092,18.0242915 L6.0668107,18.0242915 C5.2932719,18.0242915 4.58493545,18.4535567 4.2327515,19.1357659 L13.552441,1.1074397 C13.9054015,0.427457929 14.6125194,0 15.3844116,0 L27.6313708,0 L26.7393513,0 C25.8816933,0 25.0960068,0.474953255 24.7038284,1.23048855 L15.9866092,18.0242915 Z" id="shape" fill="url(#linearGradient-3)"></path>
            <path d="M17.1182781,1.23048855 C16.7260997,0.474953255 15.9404132,0 15.0827552,0 L14.1907357,0 L26.437695,0 C27.2095872,0 27.916705,0.427457929 28.2696656,1.1074397 L41.8858869,27.3392151 C41.9191803,27.4033552 41.936548,27.4744368 41.936548,27.5465587 C41.936548,27.7969874 41.7315993,28 41.4787823,28 L32.131071,28 C31.4449446,28 30.8163954,27.6200374 30.5026527,27.0156092 L17.1182781,1.23048855 Z" id="shape" fill="url(#linearGradient-4)"></path>
        </g>
    </g>
</svg>